<svg fill="none" height="512" viewBox="0 0 512 512" width="512" xmlns="http://www.w3.org/2000/svg" xmlns:xlink="http://www.w3.org/1999/xlink"><filter id="a" color-interpolation-filters="sRGB" filterUnits="userSpaceOnUse" height="273.412" width="117.713" x="196.901" y="119.629"><feFlood flood-opacity="0" result="BackgroundImageFix"/><feBlend in="SourceGraphic" in2="BackgroundImageFix" mode="normal" result="shape"/><feColorMatrix in="SourceAlpha" result="hardAlpha" type="matrix" values="0 0 0 0 0 0 0 0 0 0 0 0 0 0 0 0 0 0 127 0"/><feOffset dy="4"/><feGaussianBlur stdDeviation="2"/><feComposite in2="hardAlpha" k2="-1" k3="1" operator="arithmetic"/><feColorMatrix type="matrix" values="0 0 0 0 0 0 0 0 0 0 0 0 0 0 0 0 0 0 0.25 0"/><feBlend in2="shape" mode="normal" result="effect1_innerShadow_10_9"/></filter><linearGradient id="b" gradientUnits="userSpaceOnUse" x1="257" x2="257" y1="0" y2="510"><stop offset="0" stop-color="#ffe666"/><stop offset="1" stop-color="#ffde33"/></linearGradient><clipPath id="c"><path d="m0 0h512v512h-512z"/></clipPath><g clip-path="url(#c)"><circle cx="256" cy="256" fill="#1de9b6" r="226"/><rect fill="#1de9b6" height="512" rx="120" width="512"/><rect fill="url(#b)" height="510" rx="120" width="510" x="2"/><g fill="#000"><path d="m182.323 269.466h149.469v65.6362h-149.469z"/><circle cx="329.192" cy="334.452" r="64.9863"/><circle cx="182.323" cy="337.052" r="64.9863"/></g><path d="m329.192 367.336c17.945 0 32.493-14.548 32.493-32.493 0-17.946-12.115-32.5-40.662-37.147-34.097-5.551-45.643-24.272-51.543-18.239 0 44.406 30.645 87.879 59.712 87.879z" fill="#f26e64"/><path d="m182.235 367.336c-17.945 0-32.493-14.548-32.493-32.493 0-17.946 12.115-32.5 40.662-37.147 34.097-5.551 45.643-24.272 51.543-18.239 0 44.406-30.644 87.879-59.712 87.879z" fill="#f26e64"/><path d="m290.525 211.907c-16.896 36.717-20.145 39.567-31.193 41.591v17.214c7.654 0 15.173.111 22.564.221 53.225.787 79.14 5.075 103.185-17.435 35.292-33.04 28.269-93.247 64.166-120.875 6.669-5.132 18.131-22.442 0-24.695-62.542-7.771-130.777 33.793-158.722 103.979z" fill="#000"/><path d="m302.873 221.005c-29.569 55.238-87.95 44.19-15.597 44.19 47.222-4.224 74.12-6.823 94.577-37.319 47.115-70.233-26.666-124.821-78.98-6.871z" fill="#ff8a65"/><path d="m221.475 211.907c16.896 36.717 20.145 39.567 31.193 41.591v17.214c-7.655 0-15.174.111-22.564.221-53.225.787-79.14 5.075-103.185-17.435-35.2919-33.04-28.2689-93.247-64.1659-120.875-6.6688-5.132-18.1307-22.442 0-24.695 62.5419-7.771 130.7769 33.793 158.7219 103.979z" fill="#000"/><path d="m209.127 221.005c29.569 55.238 87.95 44.19 15.597 44.19-47.222-4.224-74.12-6.823-94.577-37.319-47.1156-70.233 26.666-124.821 78.98-6.871z" fill="#ff8a65"/><g filter="url(#a)"><path d="m265.83 205.461c5.849-36.067 20.796-65.318 43.866-80.915" stroke="#000" stroke-linecap="round" stroke-width="9.83439"/><path d="m245.684 205.461c-5.848-36.067-20.795-65.318-43.865-80.915" stroke="#000" stroke-linecap="round" stroke-width="9.83439"/><g fill="#000" stroke-width="2"><path d="m255.757 286.063c6.626 0 11.997 5.371 11.997 11.997v77.983c0 6.626-5.371 11.998-11.997 11.998s-11.997-5.372-11.997-11.998v-77.983c0-6.626 5.371-11.997 11.997-11.997z" stroke="#ffe666"/><path d="m255.757 234.073c8.78.001 15.897 7.118 15.897 15.897v31.193c0 8.78-7.117 15.897-15.897 15.897-8.779 0-15.896-7.117-15.896-15.897v-31.193c0-8.779 7.117-15.897 15.896-15.897z" stroke="#ffde33"/><path d="m255.758 200.281c10.932 0 19.795 8.863 19.795 19.795-.001 10.933-8.863 19.795-19.795 19.795-10.933 0-19.796-8.862-19.796-19.795 0-10.932 8.863-19.795 19.796-19.795z" stroke="#fee739"/></g></g></g></svg>