<svg xmlns="http://www.w3.org/2000/svg" width="24" height="24" viewBox="0 0 24 24"><path fill="#d1d5dc" d="M5.769 3.304C8.29 5.197 11.004 9.037 12 11.097c.996-2.06 3.709-5.9 6.231-7.793C20.051 1.938 23 .88 23 4.244c0 .672-.385 5.644-.611 6.451-.785 2.807-3.647 3.522-6.192 3.09 4.449.756 5.58 3.265 3.136 5.773-4.642 4.764-6.672-1.195-7.192-2.722-.096-.28-.14-.41-.141-.3 0-.11-.045.02-.14.3-.52 1.527-2.55 7.486-7.193 2.722-2.445-2.508-1.313-5.017 3.136-5.774-2.545.433-5.407-.282-6.192-3.089C1.385 9.888 1 4.916 1 4.245 1 .88 3.949 1.937 5.769 3.303"/></svg>
